<svg xmlns="http://www.w3.org/2000/svg" width="1440" height="1180" viewBox="0 0 1440 1180" role="img" aria-label="作品集 Shiro inspired visual mockup">
  <defs>
    <linearGradient id="bg" x1="0" y1="0" x2="1" y2="1">
      <stop offset="0" stop-color="#fbfaf7"/>
      <stop offset="1" stop-color="#f7fbff"/>
    </linearGradient>
    <filter id="shadow" x="-20%" y="-20%" width="140%" height="150%">
      <feDropShadow dx="0" dy="16" stdDeviation="22" flood-color="#64748b" flood-opacity="0.10"/>
    </filter>
    <style>
      .text { fill: #202332; font-family: Inter, "SF Pro Display", "PingFang SC", "Microsoft YaHei", sans-serif; }
      .muted { fill: #717786; font-family: Inter, "PingFang SC", "Microsoft YaHei", sans-serif; }
      .faint { fill: #9aa3b2; font-family: Inter, "PingFang SC", "Microsoft YaHei", sans-serif; }
      .accent { fill: #3b82f6; }
      .nav { font-size: 17px; font-weight: 650; }
      .h1 { font-size: 58px; font-weight: 760; }
      .h2 { font-size: 28px; font-weight: 740; }
      .body { font-size: 22px; }
      .small { font-size: 17px; }
      .label { font-size: 15px; font-weight: 760; }
      .card { fill: rgba(255,255,255,.76); stroke: #e6e9ef; filter: url(#shadow); }
    </style>
  </defs>
  <rect width="1440" height="1180" fill="url(#bg)"/>
  <circle cx="1190" cy="260" r="260" fill="#dbeafe" opacity=".28"/>
  <circle cx="210" cy="920" r="260" fill="#f5f3ff" opacity=".38"/>

  <rect x="104" y="34" width="1232" height="74" rx="37" fill="rgba(255,255,255,.72)" stroke="#e8ebf1"/>
  <circle cx="147" cy="71" r="23" fill="#202332"/>
  <text x="181" y="79" class="text nav">王晨阳</text>
  <text x="908" y="78" class="muted nav">首页</text>
  <text x="983" y="78" class="muted nav">简历</text>
  <text x="1058" y="78" class="accent nav">作品</text>
  <rect x="1051" y="91" width="45" height="3" rx="1.5" fill="#3b82f6"/>
  <rect x="1184" y="48" width="111" height="46" rx="23" fill="#202332"/>
  <text x="1214" y="78" fill="#fff" font-size="16" font-weight="700" font-family="Inter, PingFang SC, Microsoft YaHei, sans-serif">联系我</text>

  <g transform="translate(142 180)">
    <text x="0" y="0" class="faint label">Works / Case Studies</text>
    <text x="0" y="76" class="text h1">作品展示</text>
    <text x="0" y="122" class="muted body">把素材表现、投放数据和复盘结论放在同一个安静的阅读环境里。</text>
    <g transform="translate(0 170)">
      <rect x="0" y="0" width="76" height="42" rx="21" fill="#202332"/>
      <text x="26" y="27" fill="#fff" font-size="15" font-weight="760" font-family="Inter, PingFang SC, Microsoft YaHei, sans-serif">全部</text>
      <rect x="90" y="0" width="108" height="42" rx="21" fill="#fff" stroke="#e6e9ef"/>
      <text x="117" y="27" class="muted label">视频素材</text>
      <rect x="212" y="0" width="108" height="42" rx="21" fill="#fff" stroke="#e6e9ef"/>
      <text x="239" y="27" class="muted label">图片素材</text>
      <rect x="334" y="0" width="108" height="42" rx="21" fill="#fff" stroke="#e6e9ef"/>
      <text x="361" y="27" class="muted label">文章复盘</text>
    </g>
  </g>

  <g transform="translate(142 444)">
    <g>
      <rect class="card" x="0" y="0" width="360" height="318" rx="28"/>
      <rect x="22" y="22" width="316" height="162" rx="20" fill="#eaf2ff"/>
      <path d="M50 140 C92 84, 140 108, 185 64 C235 16, 286 96, 316 46" fill="none" stroke="#3b82f6" stroke-width="4" opacity=".82"/>
      <text x="24" y="228" class="text h2">战机仓库轮播</text>
      <text x="24" y="262" class="muted small">视频素材 · 雷霆战机 · ROI 复盘</text>
      <text x="24" y="294" class="accent label">510w+ 消耗</text>
    </g>
    <g transform="translate(400 0)">
      <rect class="card" x="0" y="0" width="360" height="318" rx="28"/>
      <rect x="22" y="22" width="316" height="162" rx="20" fill="#f3f4f6"/>
      <circle cx="100" cy="100" r="42" fill="#dbeafe"/>
      <circle cx="180" cy="100" r="42" fill="#e0e7ff"/>
      <circle cx="260" cy="100" r="42" fill="#f8fafc"/>
      <text x="24" y="228" class="text h2">赛博都市宣传片</text>
      <text x="24" y="262" class="muted small">视频创意 · 双车叙事 · 高点击</text>
      <text x="24" y="294" class="accent label">2.1k 收藏</text>
    </g>
    <g transform="translate(800 0)">
      <rect class="card" x="0" y="0" width="360" height="318" rx="28"/>
      <rect x="22" y="22" width="316" height="162" rx="20" fill="#fff7ed"/>
      <path d="M52 146 L132 66 L194 126 L240 90 L314 146 Z" fill="#fed7aa"/>
      <text x="24" y="228" class="text h2">机甲战士海报设计</text>
      <text x="24" y="262" class="muted small">图片素材 · 视觉方向 · 批量产出</text>
      <text x="24" y="294" class="accent label">256 次引用</text>
    </g>
  </g>

  <g transform="translate(142 812)">
    <g>
      <rect class="card" x="0" y="0" width="560" height="188" rx="28"/>
      <rect x="22" y="22" width="146" height="144" rx="20" fill="#edf2ff"/>
      <text x="198" y="64" class="text h2">奇幻世界观设定</text>
      <text x="198" y="102" class="muted small">从世界观、角色阵营和广告切入点做统一规划。</text>
      <text x="198" y="142" class="accent label">文章策划 · 2025</text>
    </g>
    <g transform="translate(604 0)">
      <rect class="card" x="0" y="0" width="560" height="188" rx="28"/>
      <rect x="22" y="22" width="146" height="144" rx="20" fill="#f8fafc"/>
      <text x="198" y="64" class="text h2">AI 视频工作流</text>
      <text x="198" y="102" class="muted small">把脚本、分镜、生成、剪辑和复盘串成生产线。</text>
      <text x="198" y="142" class="accent label">流程沉淀 · 团队提效</text>
    </g>
  </g>
</svg>
